<svg version="1.1" id="Layer_1" xmlns="http://www.w3.org/2000/svg" xmlns:xlink="http://www.w3.org/1999/xlink" x="0px" y="0px"
	 width="100%" viewBox="0 0 298 290" enable-background="new 0 0 298 290" xml:space="preserve">
<path fill="#FFF7F2" opacity="1.000000" stroke="none" 
	d="
M199.000000,291.000000 
	C132.666672,291.000000 66.833359,291.000000 1.000026,291.000000 
	C1.000018,194.333359 1.000018,97.666725 1.000009,1.000065 
	C100.333282,1.000044 199.666565,1.000044 298.999878,1.000022 
	C298.999939,97.666603 298.999939,194.333206 298.999969,290.999908 
	C265.833344,291.000000 232.666672,291.000000 199.000000,291.000000 
M238.720261,133.905029 
	C244.135391,133.539673 249.550522,133.174316 254.965637,132.808960 
	C254.958374,132.190155 254.951111,131.571365 254.943832,130.952560 
	C249.212631,130.952560 243.481430,130.952560 237.691879,130.023514 
	C237.688171,125.037354 237.775574,120.049088 237.660919,115.065483 
	C237.450607,105.923477 233.696274,98.747696 225.632126,94.079460 
	C203.651917,81.355370 181.696472,68.588135 159.673584,55.938339 
	C151.845734,51.442078 143.859451,51.591423 135.961761,55.963917 
	C132.624161,57.811764 129.294495,59.673988 125.803162,60.521873 
	C125.737427,59.024864 125.622726,57.528114 125.614670,56.030796 
	C125.584244,50.366024 125.710411,44.695885 125.470268,39.040829 
	C125.425606,37.989086 123.959732,36.997700 123.149780,35.978458 
	C122.246796,36.924248 120.915489,37.728687 120.545357,38.850311 
	C120.042168,40.375145 120.326775,42.147087 120.180916,43.804909 
	C119.513306,51.393604 118.813354,58.979458 117.413170,66.796432 
	C101.701759,75.866623 86.007164,84.966110 70.272110,93.995094 
	C61.962097,98.763489 58.131157,106.050262 58.076496,115.427330 
	C57.997803,128.926804 58.049950,142.427017 57.247868,156.189163 
	C50.500141,157.124969 43.753235,158.066696 37.004520,158.995346 
	C22.874893,160.939651 15.875918,168.088608 18.010689,180.040115 
	C21.036093,196.977814 29.239475,211.401672 42.898659,222.074722 
	C52.602776,229.657349 65.457069,228.928131 75.262207,221.286179 
	C76.957588,219.964828 78.694878,218.697266 81.000389,217.929031 
	C99.012878,228.345749 117.070152,238.686111 135.018372,249.212448 
	C143.588943,254.238953 151.935257,254.317429 160.509964,249.344559 
	C182.107635,236.819107 203.754501,224.378540 225.377609,211.896927 
	C233.433243,207.246918 237.457260,200.149872 237.642075,190.956711 
	C237.796127,183.294144 237.633911,175.625214 238.101730,167.443329 
	C240.836472,165.412720 243.571228,163.382095 246.305969,161.351486 
	C246.014374,160.956573 245.722794,160.561661 245.431213,160.166748 
	C242.887527,161.470566 240.343857,162.774368 237.746277,163.132309 
	C237.763031,153.419907 237.779785,143.707504 238.720261,133.905029 
z"/>
<path fill="#019688" opacity="1.000000" stroke="none" 
	d="
M237.611786,167.959091 
	C237.633911,175.625214 237.796127,183.294144 237.642075,190.956711 
	C237.457260,200.149872 233.433243,207.246918 225.377609,211.896927 
	C203.754501,224.378540 182.107635,236.819107 160.509964,249.344559 
	C151.935257,254.317429 143.588943,254.238953 135.018372,249.212448 
	C117.070152,238.686111 99.012878,228.345749 80.886879,217.380264 
	C85.256447,209.471420 90.602654,202.488373 94.020973,194.663162 
	C99.190773,182.828506 102.932243,170.374847 107.513817,158.272507 
	C108.146370,156.601608 109.952591,154.470352 111.491661,154.214630 
	C116.378517,153.402649 121.433655,153.650589 126.352943,152.974030 
	C131.694824,152.239334 133.762100,154.270096 135.080856,159.495041 
	C137.674438,169.770767 141.136749,179.838715 144.565643,189.881332 
	C145.171570,191.655930 147.361069,192.889847 148.819305,194.373444 
	C149.322067,193.964355 149.824844,193.555283 150.327606,193.146194 
	C149.828918,191.469910 149.357559,189.784927 148.826981,188.118790 
	C145.955139,179.100555 142.862396,170.146255 140.249023,161.054016 
	C137.940048,153.020798 138.174454,152.961639 146.667175,151.928513 
	C147.020981,151.885452 147.325119,151.434143 148.337021,150.626816 
	C146.410172,150.337784 145.158752,149.833237 144.034332,150.035324 
	C138.677353,150.998154 136.938797,148.265198 135.956955,143.459732 
	C130.429932,116.408409 126.964554,89.123955 125.961227,61.529678 
	C129.294495,59.673988 132.624161,57.811764 135.961761,55.963917 
	C143.859451,51.591423 151.845734,51.442078 159.673584,55.938339 
	C181.696472,68.588135 203.651917,81.355370 225.632126,94.079460 
	C233.696274,98.747696 237.450607,105.923477 237.660919,115.065483 
	C237.775574,120.049088 237.688171,125.037354 237.308533,130.526062 
	C233.983444,131.403030 232.549026,130.313080 232.844254,127.153908 
	C233.013550,125.342125 233.012909,123.457932 232.687820,121.679634 
	C232.518051,120.750984 231.480850,119.980911 230.835434,119.139214 
	C230.038986,119.853081 228.949402,120.427139 228.524429,121.318176 
	C228.052536,122.307640 227.984909,123.605560 228.092865,124.735580 
	C228.523483,129.243286 227.154495,131.798599 222.045441,131.097687 
	C220.912979,130.942322 219.670349,131.589996 218.478439,131.867905 
	C218.478210,132.298416 218.477997,132.728928 218.477768,133.159439 
	C220.308777,133.402252 222.212219,133.416992 223.945450,133.967606 
	C225.111511,134.338058 226.972763,135.526825 226.926193,136.246048 
	C226.422501,144.021515 229.043442,152.184601 224.453659,158.800461 
	C225.604462,159.880112 226.938141,160.548050 227.286133,161.556213 
	C229.022537,166.586823 232.337158,168.778275 237.611786,167.959091 
M185.984024,144.990509 
	C185.984024,144.990509 185.866226,144.892395 185.822021,144.071518 
	C187.385773,137.615479 189.310532,131.221375 190.431244,124.689323 
	C192.250778,114.084129 193.813156,103.413994 194.823288,92.708923 
	C195.017120,90.654701 192.166016,88.313156 190.719666,86.104156 
	C188.741089,87.847351 185.836853,89.228622 184.983261,91.411682 
	C183.376785,95.520355 182.455215,100.054665 182.127457,104.477119 
	C180.948746,120.381966 180.272675,136.324371 179.056824,152.225830 
	C178.845047,154.995468 177.085037,157.711288 175.730377,160.289200 
	C175.329773,161.051575 173.644608,161.834778 172.951004,161.566544 
	C172.132980,161.250198 171.267990,159.801376 171.270889,158.846130 
	C171.280441,155.707245 172.015762,152.544998 171.793259,149.440384 
	C171.656082,147.526245 170.727798,144.701080 169.351929,144.088760 
	C167.638947,143.326431 164.729645,143.814240 163.002228,144.860519 
	C160.433182,146.416565 158.447006,148.934921 156.091644,151.158066 
	C155.967636,150.417999 156.058868,149.628418 155.714020,149.159531 
	C154.754059,147.854233 153.613052,146.682053 152.543564,145.457306 
	C152.027359,146.901733 151.169983,148.322250 151.066650,149.795624 
	C150.857513,152.777512 150.805466,155.818863 151.167404,158.777115 
	C151.461197,161.178207 152.454422,163.493713 153.137436,165.847183 
	C154.600342,163.901627 156.268524,162.075363 157.483170,159.985519 
	C159.964767,155.715836 160.678360,150.281631 166.015884,147.150299 
	C166.015884,151.707413 165.592987,155.724075 166.181381,159.586670 
	C166.511414,161.753143 168.099518,164.366043 169.913040,165.440079 
	C171.086533,166.135071 173.753433,164.549225 175.633209,163.718597 
	C176.723938,163.236618 177.581253,162.226471 178.949387,161.128281 
	C179.034637,162.769073 178.843643,163.850830 179.190689,164.717041 
	C179.791931,166.217697 180.726425,167.584854 181.521133,169.008011 
	C182.581940,167.592590 184.145889,166.315674 184.582779,164.728500 
	C185.201050,162.482422 184.987473,160.007370 185.159012,157.134964 
	C195.487015,169.285645 200.287552,166.954163 210.471115,158.521088 
	C215.100296,165.905899 219.560349,166.937714 222.542938,161.313873 
	C216.748535,160.572098 215.890991,159.339249 216.626862,153.141815 
	C216.821976,151.498550 217.022049,149.757172 216.673233,148.181885 
	C216.430817,147.087128 215.253860,146.199295 214.494431,145.219025 
	C213.574020,146.066025 212.469803,146.789902 211.793076,147.800140 
	C211.279221,148.567261 211.225647,149.689026 211.111496,150.669785 
	C210.527374,155.688049 206.559219,159.932571 201.324921,160.942871 
	C195.880188,161.993805 192.606888,159.073547 190.137802,155.049408 
	C192.994110,152.411255 195.890793,150.185760 198.158310,147.440567 
	C199.200439,146.178879 199.856644,142.792206 199.209976,142.296280 
	C197.575226,141.042633 194.839111,139.973557 193.030090,140.500015 
	C190.489029,141.239532 188.387482,143.489273 185.984024,144.990509 
z"/>
<path fill="#019688" opacity="1.000000" stroke="none" 
	d="
M58.046249,155.926926 
	C58.049950,142.427017 57.997803,128.926804 58.076496,115.427330 
	C58.131157,106.050262 61.962097,98.763489 70.272110,93.995094 
	C86.007164,84.966110 101.701759,75.866623 117.782135,67.179260 
	C116.383423,81.680214 115.013687,95.863091 112.730408,109.897331 
	C110.659309,122.627357 107.678528,135.214615 104.856995,147.810638 
	C104.506493,149.375381 102.789940,151.689240 101.507744,151.828629 
	C87.042999,153.400955 72.539413,154.616013 58.046249,155.926926 
z"/>
<path fill="#283D41" opacity="1.000000" stroke="none" 
	d="
M57.647057,156.058044 
	C72.539413,154.616013 87.042999,153.400955 101.507744,151.828629 
	C102.789940,151.689240 104.506493,149.375381 104.856995,147.810638 
	C107.678528,135.214615 110.659309,122.627357 112.730408,109.897331 
	C115.013687,95.863091 116.383423,81.680214 118.138062,67.064209 
	C118.813354,58.979458 119.513306,51.393604 120.180916,43.804909 
	C120.326775,42.147087 120.042168,40.375145 120.545357,38.850311 
	C120.915489,37.728687 122.246796,36.924248 123.149780,35.978458 
	C123.959732,36.997700 125.425606,37.989086 125.470268,39.040829 
	C125.710411,44.695885 125.584244,50.366024 125.614670,56.030796 
	C125.622726,57.528114 125.737427,59.024864 125.882195,61.025772 
	C126.964554,89.123955 130.429932,116.408409 135.956955,143.459732 
	C136.938797,148.265198 138.677353,150.998154 144.034332,150.035324 
	C145.158752,149.833237 146.410172,150.337784 148.337021,150.626816 
	C147.325119,151.434143 147.020981,151.885452 146.667175,151.928513 
	C138.174454,152.961639 137.940048,153.020798 140.249023,161.054016 
	C142.862396,170.146255 145.955139,179.100555 148.826981,188.118790 
	C149.357559,189.784927 149.828918,191.469910 150.327606,193.146194 
	C149.824844,193.555283 149.322067,193.964355 148.819305,194.373444 
	C147.361069,192.889847 145.171570,191.655930 144.565643,189.881332 
	C141.136749,179.838715 137.674438,169.770767 135.080856,159.495041 
	C133.762100,154.270096 131.694824,152.239334 126.352943,152.974030 
	C121.433655,153.650589 116.378517,153.402649 111.491661,154.214630 
	C109.952591,154.470352 108.146370,156.601608 107.513817,158.272507 
	C102.932243,170.374847 99.190773,182.828506 94.020973,194.663162 
	C90.602654,202.488373 85.256447,209.471420 80.593086,217.118179 
	C78.694878,218.697266 76.957588,219.964828 75.262207,221.286179 
	C65.457069,228.928131 52.602776,229.657349 42.898659,222.074722 
	C29.239475,211.401672 21.036093,196.977814 18.010689,180.040115 
	C15.875918,168.088608 22.874893,160.939651 37.004520,158.995346 
	C43.753235,158.066696 50.500141,157.124969 57.647057,156.058044 
M57.175579,159.099930 
	C50.441395,160.064758 43.667015,160.811249 36.981815,162.042099 
	C24.910864,164.264603 20.332108,170.892563 23.278751,182.758774 
	C26.629774,196.253433 33.260475,208.169189 43.452362,217.730545 
	C54.313751,227.920029 66.059555,226.764175 76.326317,214.713486 
	C90.385429,197.369461 96.800598,176.657761 103.188759,154.471786 
	C87.527588,156.102417 72.764229,157.639572 57.175579,159.099930 
M116.253273,118.856972 
	C114.173157,129.367432 112.093040,139.877899 110.050346,150.199280 
	C117.577911,150.199280 124.590630,150.199280 131.660995,150.199280 
	C128.491821,129.700989 125.453552,110.049385 122.415276,90.397781 
	C122.018883,90.384338 121.622498,90.370895 121.226105,90.357452 
	C119.649895,99.581741 118.073677,108.806023 116.253273,118.856972 
z"/>
<path fill="#274144" opacity="1.000000" stroke="none" 
	d="
M237.856750,167.701202 
	C232.337158,168.778275 229.022537,166.586823 227.286133,161.556213 
	C226.938141,160.548050 225.604462,159.880112 224.453659,158.800461 
	C229.043442,152.184601 226.422501,144.021515 226.926193,136.246048 
	C226.972763,135.526825 225.111511,134.338058 223.945450,133.967606 
	C222.212219,133.416992 220.308777,133.402252 218.477768,133.159439 
	C218.477997,132.728928 218.478210,132.298416 218.478439,131.867905 
	C219.670349,131.589996 220.912979,130.942322 222.045441,131.097687 
	C227.154495,131.798599 228.523483,129.243286 228.092865,124.735580 
	C227.984909,123.605560 228.052536,122.307640 228.524429,121.318176 
	C228.949402,120.427139 230.038986,119.853081 230.835434,119.139214 
	C231.480850,119.980911 232.518051,120.750984 232.687820,121.679634 
	C233.012909,123.457932 233.013550,125.342125 232.844254,127.153908 
	C232.549026,130.313080 233.983444,131.403030 237.337708,130.990585 
	C243.481430,130.952560 249.212631,130.952560 254.943832,130.952560 
	C254.951111,131.571365 254.958374,132.190155 254.965637,132.808960 
	C249.550522,133.174316 244.135391,133.539673 237.859772,133.897064 
	C235.412491,134.934021 232.518005,135.900253 232.449600,137.036575 
	C231.980667,144.827301 231.860992,152.663071 232.163605,160.463593 
	C232.274734,163.328537 233.765839,166.249054 237.800171,164.078186 
	C240.343857,162.774368 242.887527,161.470566 245.431213,160.166748 
	C245.722794,160.561661 246.014374,160.956573 246.305969,161.351486 
	C243.571228,163.382095 240.836472,165.412720 237.856750,167.701202 
z"/>
<path fill="#129A8D" opacity="1.000000" stroke="none" 
	d="
M237.773224,163.605255 
	C233.765839,166.249054 232.274734,163.328537 232.163605,160.463593 
	C231.860992,152.663071 231.980667,144.827301 232.449600,137.036575 
	C232.518005,135.900253 235.412491,134.934021 237.397919,133.942093 
	C237.779785,143.707504 237.763031,153.419907 237.773224,163.605255 
z"/>
<path fill="#223C3F" opacity="1.000000" stroke="none" 
	d="
M186.097946,145.093094 
	C188.387482,143.489273 190.489029,141.239532 193.030090,140.500015 
	C194.839111,139.973557 197.575226,141.042633 199.209976,142.296280 
	C199.856644,142.792206 199.200439,146.178879 198.158310,147.440567 
	C195.890793,150.185760 192.994110,152.411255 190.137802,155.049408 
	C192.606888,159.073547 195.880188,161.993805 201.324921,160.942871 
	C206.559219,159.932571 210.527374,155.688049 211.111496,150.669785 
	C211.225647,149.689026 211.279221,148.567261 211.793076,147.800140 
	C212.469803,146.789902 213.574020,146.066025 214.494431,145.219025 
	C215.253860,146.199295 216.430817,147.087128 216.673233,148.181885 
	C217.022049,149.757172 216.821976,151.498550 216.626862,153.141815 
	C215.890991,159.339249 216.748535,160.572098 222.542938,161.313873 
	C219.560349,166.937714 215.100296,165.905899 210.471115,158.521088 
	C200.287552,166.954163 195.487015,169.285645 185.159012,157.134964 
	C184.987473,160.007370 185.201050,162.482422 184.582779,164.728500 
	C184.145889,166.315674 182.581940,167.592590 181.521133,169.008011 
	C180.726425,167.584854 179.791931,166.217697 179.190689,164.717041 
	C178.843643,163.850830 179.034637,162.769073 178.949387,161.128281 
	C177.581253,162.226471 176.723938,163.236618 175.633209,163.718597 
	C173.753433,164.549225 171.086533,166.135071 169.913040,165.440079 
	C168.099518,164.366043 166.511414,161.753143 166.181381,159.586670 
	C165.592987,155.724075 166.015884,151.707413 166.015884,147.150299 
	C160.678360,150.281631 159.964767,155.715836 157.483170,159.985519 
	C156.268524,162.075363 154.600342,163.901627 153.137436,165.847183 
	C152.454422,163.493713 151.461197,161.178207 151.167404,158.777115 
	C150.805466,155.818863 150.857513,152.777512 151.066650,149.795624 
	C151.169983,148.322250 152.027359,146.901733 152.543564,145.457306 
	C153.613052,146.682053 154.754059,147.854233 155.714020,149.159531 
	C156.058868,149.628418 155.967636,150.417999 156.091644,151.158066 
	C158.447006,148.934921 160.433182,146.416565 163.002228,144.860519 
	C164.729645,143.814240 167.638947,143.326431 169.351929,144.088760 
	C170.727798,144.701080 171.656082,147.526245 171.793259,149.440384 
	C172.015762,152.544998 171.280441,155.707245 171.270889,158.846130 
	C171.267990,159.801376 172.132980,161.250198 172.951004,161.566544 
	C173.644608,161.834778 175.329773,161.051575 175.730377,160.289200 
	C177.085037,157.711288 178.845047,154.995468 179.056824,152.225830 
	C180.272675,136.324371 180.948746,120.381966 182.127457,104.477119 
	C182.455215,100.054665 183.376785,95.520355 184.983261,91.411682 
	C185.836853,89.228622 188.741089,87.847351 190.719666,86.104156 
	C192.166016,88.313156 195.017120,90.654701 194.823288,92.708923 
	C193.813156,103.413994 192.250778,114.084129 190.431244,124.689323 
	C189.310532,131.221375 187.385773,137.615479 185.639420,144.614777 
	C185.489304,145.554764 185.521774,145.951477 185.554260,146.348206 
	C185.735489,145.929840 185.916718,145.511459 186.097946,145.093094 
M185.995605,111.582764 
	C185.401855,119.625061 184.808121,127.667358 184.214371,135.709656 
	C189.521133,123.439095 193.333923,95.204674 190.541763,89.872322 
	C186.261978,96.451210 187.371338,103.847015 185.995605,111.582764 
M191.287506,149.835434 
	C192.630707,148.337173 193.973923,146.838913 195.651016,144.968201 
	C190.478485,144.036774 187.232651,146.706863 186.472153,151.932617 
	C187.996078,151.286636 189.315918,150.727173 191.287506,149.835434 
z"/>
<path fill="#FCF5F0" opacity="1.000000" stroke="none" 
	d="
M75.720581,215.055603 
	C66.059555,226.764175 54.313751,227.920029 43.452362,217.730545 
	C33.260475,208.169189 26.629774,196.253433 23.278751,182.758774 
	C20.332108,170.892563 24.910864,164.264603 36.981815,162.042099 
	C43.667015,160.811249 50.441395,160.064758 57.606728,159.591721 
	C58.046368,164.555603 58.058762,169.027679 58.062340,173.499771 
	C58.066715,178.965759 58.159092,184.433731 58.044697,189.897324 
	C57.777798,202.644714 65.345078,209.820847 75.720581,215.055603 
z"/>
<path fill="#019688" opacity="1.000000" stroke="none" 
	d="
M76.023453,214.884552 
	C65.345078,209.820847 57.777798,202.644714 58.044697,189.897324 
	C58.159092,184.433731 58.066715,178.965759 58.062340,173.499771 
	C58.058762,169.027679 58.046368,164.555603 58.019371,159.630127 
	C72.764229,157.639572 87.527588,156.102417 103.188759,154.471786 
	C96.800598,176.657761 90.385429,197.369461 76.023453,214.884552 
z"/>
<path fill="#019386" opacity="1.000000" stroke="none" 
	d="
M116.375366,118.443642 
	C118.073677,108.806023 119.649895,99.581741 121.226105,90.357452 
	C121.622498,90.370895 122.018883,90.384338 122.415276,90.397781 
	C125.453552,110.049385 128.491821,129.700989 131.660995,150.199280 
	C124.590630,150.199280 117.577911,150.199280 110.050346,150.199280 
	C112.093040,139.877899 114.173157,129.367432 116.375366,118.443642 
z"/>
<path fill="#048C80" opacity="1.000000" stroke="none" 
	d="
M186.006836,111.121216 
	C187.371338,103.847015 186.261978,96.451210 190.541763,89.872322 
	C193.333923,95.204674 189.521133,123.439095 184.214371,135.709656 
	C184.808121,127.667358 185.401855,119.625061 186.006836,111.121216 
z"/>
<path fill="#05887D" opacity="1.000000" stroke="none" 
	d="
M190.961624,150.001587 
	C189.315918,150.727173 187.996078,151.286636 186.472153,151.932617 
	C187.232651,146.706863 190.478485,144.036774 195.651016,144.968201 
	C193.973923,146.838913 192.630707,148.337173 190.961624,150.001587 
z"/>
<path fill="#019688" opacity="1.000000" stroke="none" 
	d="
M186.040985,145.041809 
	C185.916718,145.511459 185.735489,145.929840 185.554260,146.348206 
	C185.521774,145.951477 185.489304,145.554764 185.661530,145.025208 
	C185.866226,144.892395 185.984024,144.990509 186.040985,145.041809 
z"/>
</svg>